<svg xmlns="http://www.w3.org/2000/svg" viewBox="0 0 86.19 88.4"><defs><style>.cls-1{fill:#e60012;}</style></defs><g id="图层_2" data-name="图层 2"><g id="图层_1-2" data-name="图层 1"><path class="cls-1" d="M84.09,39.91c1.4-4.28,3.39-12.62,1-20.46A26.39,26.39,0,0,0,74.78,5.51C74.2,5,67.93,0,56.11,0,45.29,0,33.44,4.18,20.86,12.41l-.4.27-.06,0-1.12.7a10.19,10.19,0,0,1-1,.65A74,74,0,0,0,11,19.72C5.7,24.85-.36,33.44,0,40.73a9.75,9.75,0,0,0,3.83,7.5,12.62,12.62,0,0,0,8,2.54c6.44,0,13.5-3.51,18.32-6.48l.92-.61L33.59,42l.83-.56c6.86-4.6,14-9.36,22-12.13a16.91,16.91,0,0,1,5.55-1.07,10.57,10.57,0,0,1,2.4.27,7.49,7.49,0,0,1,5.28,4.12c1.85,3.78,1.41,9.74-1.11,15.2-3.45,7.43-9.36,14.76-17.58,21.78a69.88,69.88,0,0,1-11.48,8.2l-.32.17a43.17,43.17,0,0,1-5.32,2.6l-.26.1c-.57.21-1,.39-1.49.54-8,2.16-3.14-4.92-3.14-4.92a60.09,60.09,0,0,1,5.48-5.56c1.09-1,2.21-2.07,3.34-3.21l.25-.25c1.4-1.4,3.32-3.32,3.2-6.08-.16-3.65-3.87-5.94-7.35-6h-.26c-3.36,0-6.54,2-8.61,3.63a28.14,28.14,0,0,0-5.77,6.5c-2.13,3.39-6.63,12-2.25,18.95,1.75,2.76,4.68,4.16,8.7,4.16a29.8,29.8,0,0,0,9.86-2,72,72,0,0,0,14.33-7.54L51,78.1A107.79,107.79,0,0,0,64.5,67.93c10.08-8.82,16.13-17.46,19.59-28"/></g></g></svg>