<svg xmlns="http://www.w3.org/2000/svg" viewBox="0 0 382.81 99.07"><defs><style>.cls-1{fill:#e60012;}</style></defs><g id="图层_2" data-name="图层 2"><g id="图层_1-2" data-name="图层 1"><path class="cls-1" d="M272.7,8.4l-17.42,2.79V74.46c0,14.17,8.28,20.87,22.16,20.87a37.35,37.35,0,0,0,6.47-.63V84.17c-.19,0-1.47,0-2.46-.06-7.31-.25-8.75-4.28-8.75-8.93V39.57h11.21V27.08H272.7Z"/><path class="cls-1" d="M210,39.18l0,55.61h17.33V42.44c2.27-2.2,7.07-4.14,11.62-4.32a22,22,0,0,1,7,.71l4.79-10.76A29.62,29.62,0,0,0,239.24,26c-7.46,0-18.91,2.19-29.23,13.17"/><polygon class="cls-1" points="196.41 27.05 179.41 29.83 179.41 94.73 196.41 94.73 196.41 27.05"/><path class="cls-1" d="M142.39,25.84c-8.12,0-15.41,2.3-22.92,6l-1.92,1,4.57,10.2,2.59-1.22c5.3-2.38,11-4,16-3.77,6.15.26,8.68,3.09,8.68,9V50.5H139.36c-16.19,0-26.26,8.58-26.54,21.9,0,12.66,10.54,23.57,25.23,23.57,11.84,0,21.87-3.85,28.64-10.62V49.22c0-17.59-12.57-23.38-24.3-23.38m7,56.11c-1.67,1.19-5.09,2.2-8.83,2.2-6.83,0-9.91-5.24-9.79-11.35.12-5.06,3.27-10.8,11.8-10.8h6.82Z"/><path class="cls-1" d="M177.13,10.8a10.81,10.81,0,0,0,21.61.08A10.6,10.6,0,0,0,188.08,0a10.9,10.9,0,0,0-11,10.8"/><path class="cls-1" d="M339.78,78.28A32.83,32.83,0,0,1,321.48,84c-4.66,0-7.8-1.52-9.86-3.74C308.56,77,307.2,70.18,307.56,63h36.65V61.29c-.32-24-8.5-34.92-26.41-34.92-20,0-27.76,18.38-27.91,35.66-.12,10.91,4,21.91,11.55,28.18,4.57,3.81,10.93,5.92,18.31,5.92a40.94,40.94,0,0,0,12.05-1.78,48.53,48.53,0,0,0,12.78-6.21ZM317.8,39c7.55,0,8.67,8.19,8.67,13.29H308.08c.28-6.55,3-13.29,9.72-13.29"/><path class="cls-1" d="M382.81,94.79V84.11s-1.59,0-2.57,0c-7.08-.54-8.55-3.64-8.55-8.82V8.3l-17,2.91v63c0,14.93,8.1,21.32,21.66,21.32a41.5,41.5,0,0,0,6.5-.69"/><path class="cls-1" d="M84.09,50.58c1.4-4.28,3.39-12.63,1-20.46A26.37,26.37,0,0,0,74.78,16.17c-.58-.48-6.85-5.5-18.67-5.5-10.82,0-22.67,4.17-35.25,12.41l-.4.26-.06,0-1.12.71a10.19,10.19,0,0,1-1,.65A73.91,73.91,0,0,0,11,30.38C5.7,35.52-.36,44.1,0,51.4a9.75,9.75,0,0,0,3.83,7.5,12.62,12.62,0,0,0,8,2.54c6.44,0,13.5-3.51,18.32-6.48l.92-.62,2.52-1.68.83-.55c6.86-4.6,14-9.36,22-12.13a16.91,16.91,0,0,1,5.55-1.07,10,10,0,0,1,2.4.27,7.44,7.44,0,0,1,5.28,4.12C71.46,47.08,71,53,68.5,58.49c-3.45,7.44-9.36,14.77-17.58,21.78a69.28,69.28,0,0,1-11.48,8.2l-.32.18a41.77,41.77,0,0,1-5.32,2.59l-.26.1-1.49.55C24,94,28.91,87,28.91,87a60.22,60.22,0,0,1,5.48-5.57c1.09-1,2.21-2.06,3.34-3.2L38,78c1.4-1.4,3.32-3.32,3.2-6.08-.16-3.66-3.87-5.94-7.35-6h-.26c-3.36,0-6.54,2-8.61,3.63A27.94,27.94,0,0,0,19.19,76c-2.13,3.39-6.63,12-2.25,18.94,1.75,2.77,4.68,4.17,8.7,4.17a29.84,29.84,0,0,0,9.86-2A71.44,71.44,0,0,0,49.83,89.5L51,88.76A107.68,107.68,0,0,0,64.5,78.6c10.08-8.82,16.13-17.46,19.59-28"/></g></g></svg>